<svg width="20" height="22" viewBox="0 0 20 22" fill="none" xmlns="http://www.w3.org/2000/svg">
<path d="M6 16.6138H14M9.0177 2.37783L2.23539 7.65296C1.78202 8.00558 1.55534 8.18189 1.39203 8.40269C1.24737 8.59827 1.1396 8.81861 1.07403 9.05288C1 9.31735 1 9.60453 1 10.1789V17.4138C1 18.5339 1 19.094 1.21799 19.5218C1.40973 19.8981 1.71569 20.2041 2.09202 20.3958C2.51984 20.6138 3.07989 20.6138 4.2 20.6138H15.8C16.9201 20.6138 17.4802 20.6138 17.908 20.3958C18.2843 20.2041 18.5903 19.8981 18.782 19.5218C19 19.094 19 18.5339 19 17.4138V10.1789C19 9.60453 19 9.31735 18.926 9.05288C18.8604 8.81861 18.7526 8.59827 18.608 8.40269C18.4447 8.18189 18.218 8.00558 17.7646 7.65296L10.9823 2.37783C10.631 2.10458 10.4553 1.96795 10.2613 1.91543C10.0902 1.86909 9.9098 1.86909 9.73865 1.91543C9.54468 1.96795 9.36902 2.10458 9.0177 2.37783Z" stroke="#FBFDFF" stroke-width="2" stroke-linecap="round" stroke-linejoin="round"/>
</svg>
