<svg width="18" height="18" viewBox="0 0 18 18" fill="none" xmlns="http://www.w3.org/2000/svg">
<path d="M12.3333 5.66666V2.75054C12.3333 2.05742 12.3333 1.71087 12.1873 1.49789C12.0598 1.31181 11.8622 1.18541 11.6398 1.14756C11.3852 1.10424 11.0706 1.24947 10.4413 1.53993L3.04918 4.95165C2.48792 5.2107 2.20729 5.34022 2.00175 5.54109C1.82005 5.71868 1.68135 5.93545 1.59625 6.17485C1.5 6.44565 1.5 6.75473 1.5 7.37288V11.5M12.75 11.0833H12.7583M1.5 8.33333L1.5 13.8333C1.5 14.7667 1.5 15.2335 1.68166 15.59C1.84144 15.9036 2.09641 16.1585 2.41002 16.3183C2.76654 16.5 3.23325 16.5 4.16667 16.5H13.8333C14.7668 16.5 15.2335 16.5 15.59 16.3183C15.9036 16.1585 16.1586 15.9036 16.3183 15.59C16.5 15.2335 16.5 14.7667 16.5 13.8333V8.33333C16.5 7.39991 16.5 6.9332 16.3183 6.57668C16.1586 6.26307 15.9036 6.00811 15.59 5.84832C15.2335 5.66666 14.7668 5.66666 13.8333 5.66666L4.16667 5.66666C3.23325 5.66666 2.76654 5.66666 2.41002 5.84832C2.09641 6.00811 1.84144 6.26307 1.68166 6.57668C1.5 6.9332 1.5 7.39991 1.5 8.33333ZM13.1667 11.0833C13.1667 11.3134 12.9801 11.5 12.75 11.5C12.5199 11.5 12.3333 11.3134 12.3333 11.0833C12.3333 10.8532 12.5199 10.6667 12.75 10.6667C12.9801 10.6667 13.1667 10.8532 13.1667 11.0833Z" stroke="#FFF" stroke-width="1.66667" stroke-linecap="round" stroke-linejoin="round"/>
</svg>
