<svg width="21" height="19" viewBox="0 0 21 19" fill="none" xmlns="http://www.w3.org/2000/svg">
<path fill-rule="evenodd" clip-rule="evenodd" d="M1.99956 9.5C1.99956 4.25329 6.25285 0 11.4996 0C16.7463 0 20.9996 4.25329 20.9996 9.5C20.9996 14.7467 16.7463 19 11.4996 19C10.2979 19 9.14616 18.7764 8.08521 18.3677C7.99426 18.3326 7.94157 18.3124 7.90272 18.2984C7.89797 18.2967 7.89386 18.2953 7.89036 18.2941C7.88909 18.2941 7.88773 18.2942 7.88628 18.2944C7.85466 18.2968 7.8115 18.3012 7.72894 18.3097L2.60792 18.8391C2.59666 18.8402 2.58536 18.8414 2.57404 18.8426C2.35985 18.8648 2.13641 18.8879 1.94952 18.8901C1.76377 18.8923 1.42898 18.8818 1.10798 18.6859C0.731695 18.4564 0.475409 18.073 0.407188 17.6376C0.348987 17.2661 0.46727 16.9527 0.540295 16.7819C0.613767 16.61 0.720584 16.4124 0.822976 16.223L2.47484 13.1655C2.5463 13.0332 2.5845 12.962 2.6102 12.909C2.61155 12.9063 2.6128 12.9036 2.61395 12.9012C2.61203 12.8943 2.60969 12.8861 2.60687 12.8766C2.58522 12.8033 2.55191 12.7039 2.49531 12.536C2.17355 11.5814 1.99956 10.56 1.99956 9.5ZM11.4996 2C7.35742 2 3.99956 5.35786 3.99956 9.5C3.99956 10.34 4.13726 11.1458 4.39055 11.8972C4.39859 11.9211 4.40689 11.9455 4.41535 11.9703C4.49649 12.2089 4.59181 12.489 4.61187 12.7425C4.63016 12.9736 4.61349 13.169 4.55632 13.3936C4.4938 13.6393 4.36673 13.8729 4.26367 14.0623C4.25368 14.0807 4.24392 14.0986 4.23446 14.1161L2.77866 16.8108L7.5233 16.3203C7.53406 16.3192 7.54511 16.318 7.55642 16.3169C7.67542 16.3044 7.8229 16.2889 7.96763 16.2944C8.09991 16.2995 8.21138 16.3143 8.34037 16.344C8.48197 16.3767 8.63559 16.4361 8.76514 16.4863C8.77843 16.4914 8.79147 16.4965 8.80421 16.5014C9.63937 16.8231 10.5476 17 11.4996 17C15.6417 17 18.9996 13.6421 18.9996 9.5C18.9996 5.35786 15.6417 2 11.4996 2ZM11.8315 6.51797C11.541 6.46813 11.2421 6.52274 10.988 6.67211C10.7338 6.82148 10.5407 7.05598 10.4429 7.33408C10.2596 7.85507 9.6887 8.12884 9.16772 7.94557C8.64673 7.7623 8.37295 7.19138 8.55622 6.67039C8.81079 5.94674 9.31325 5.33653 9.97461 4.94784C10.636 4.55915 11.4136 4.41707 12.1696 4.54676C12.9257 4.67645 13.6115 5.06954 14.1055 5.6564C14.5994 6.24313 14.8698 6.98568 14.8688 7.75261C14.8683 9.03238 13.9217 9.85508 13.2993 10.27C12.9577 10.4978 12.6231 10.6643 12.3779 10.7733C12.2539 10.8284 12.1492 10.8704 12.0731 10.8994C12.035 10.9139 12.0038 10.9252 11.9807 10.9334L11.9523 10.9434L11.9428 10.9466L11.9394 10.9478L11.9379 10.9483C11.9376 10.9484 11.9367 10.9487 11.6205 10L11.9367 10.9487C11.4128 11.1233 10.8464 10.8402 10.6718 10.3162C10.4972 9.79246 10.7801 9.22635 11.3037 9.05149L11.3024 9.05193L11.3107 9.049C11.3206 9.04549 11.3377 9.03928 11.3611 9.03038C11.408 9.01252 11.4789 8.98423 11.5656 8.94567C11.742 8.86728 11.9695 8.75281 12.1899 8.60587C12.6916 8.27142 12.8688 7.97025 12.8688 7.75168L12.8688 7.75019C12.8692 7.45539 12.7653 7.16994 12.5755 6.94441C12.3856 6.71887 12.1221 6.56781 11.8315 6.51797ZM10.6495 13C10.6495 12.4477 11.0972 12 11.6495 12H11.6595C12.2117 12 12.6595 12.4477 12.6595 13C12.6595 13.5523 12.2117 14 11.6595 14H11.6495C11.0972 14 10.6495 13.5523 10.6495 13Z" fill="white"/>
</svg>
