<svg width="20" height="22" viewBox="0 0 20 22" fill="none" xmlns="http://www.w3.org/2000/svg">
<path d="M18.5 6.27783L9.99997 11.0001M9.99997 11.0001L1.49997 6.27783M9.99997 11.0001L10 20.5001M19 15.0586V6.94153C19 6.59889 19 6.42757 18.9495 6.27477C18.9049 6.13959 18.8318 6.01551 18.7354 5.91082C18.6263 5.79248 18.4766 5.70928 18.177 5.54288L10.777 1.43177C10.4934 1.27421 10.3516 1.19543 10.2015 1.16454C10.0685 1.13721 9.93146 1.13721 9.79855 1.16454C9.64838 1.19543 9.50658 1.27421 9.22297 1.43177L1.82297 5.54288C1.52345 5.70928 1.37369 5.79248 1.26463 5.91082C1.16816 6.01551 1.09515 6.13959 1.05048 6.27477C1 6.42757 1 6.59889 1 6.94153V15.0586C1 15.4013 1 15.5726 1.05048 15.7254C1.09515 15.8606 1.16816 15.9847 1.26463 16.0893C1.37369 16.2077 1.52345 16.2909 1.82297 16.4573L9.22297 20.5684C9.50658 20.726 9.64838 20.8047 9.79855 20.8356C9.93146 20.863 10.0685 20.863 10.2015 20.8356C10.3516 20.8047 10.4934 20.726 10.777 20.5684L18.177 16.4573C18.4766 16.2909 18.6263 16.2077 18.7354 16.0893C18.8318 15.9847 18.9049 15.8606 18.9495 15.7254C19 15.5726 19 15.4013 19 15.0586Z" stroke="#FBFDFF" stroke-width="2" stroke-linecap="round" stroke-linejoin="round"/>
</svg>
