<svg width="20" height="23" viewBox="0 0 20 23" fill="none" xmlns="http://www.w3.org/2000/svg">
<path d="M19 9.61383H1M14 1.61383V5.61383M6 1.61383V5.61383M7 15.6138L9 17.6138L13.5 13.1138M5.8 21.6138H14.2C15.8802 21.6138 16.7202 21.6138 17.362 21.2869C17.9265 20.9992 18.3854 20.5403 18.673 19.9758C19 19.3341 19 18.494 19 16.8138V8.41383C19 6.73367 19 5.89359 18.673 5.25186C18.3854 4.68737 17.9265 4.22843 17.362 3.94081C16.7202 3.61383 15.8802 3.61383 14.2 3.61383H5.8C4.11984 3.61383 3.27976 3.61383 2.63803 3.94081C2.07354 4.22843 1.6146 4.68737 1.32698 5.25186C1 5.89359 1 6.73367 1 8.41383V16.8138C1 18.494 1 19.3341 1.32698 19.9758C1.6146 20.5403 2.07354 20.9992 2.63803 21.2869C3.27976 21.6138 4.11984 21.6138 5.8 21.6138Z" stroke="#FBFDFF" stroke-width="2" stroke-linecap="round" stroke-linejoin="round"/>
</svg>
