<svg width="279" height="43" viewBox="0 0 279 43" fill="none" xmlns="http://www.w3.org/2000/svg">
<path d="M62.2692 1.12954C59.9656 1.75441 58.0537 2.27669 58.035 2.29535C58.007 2.314 58.4174 2.76167 58.9397 3.28395L59.891 4.23524L44.3625 19.7637C35.8195 28.3067 28.834 35.3202 28.834 35.3482C28.834 35.4415 31.119 37.7637 31.2122 37.7637C31.2682 37.7637 38.291 30.7782 46.834 22.2352L62.3625 6.70674L63.3138 7.65804C63.8361 8.18032 64.2837 8.59068 64.3024 8.5627C64.321 8.54405 64.834 6.66011 65.4402 4.37514C66.0464 2.09016 66.5594 0.168919 66.5874 0.103634C66.606 0.0476761 66.5874 -0.00828171 66.55 0.00104523C66.5034 0.00104523 64.5822 0.513996 62.2692 1.12954Z" fill="white"/>
<path d="M42.5432 1.57742C38.6074 1.98779 34.709 3.56395 31.7245 5.95152C30.8292 6.66965 29.1877 8.32043 28.4509 9.23442C26.6043 11.5474 25.3266 14.1121 24.5898 17.0033C24.0955 18.9619 23.9556 20.2956 24.0116 22.5992C24.0862 25.6956 24.6178 28.0551 25.8675 30.7691L26.2313 31.5526L34.3639 23.4199L42.4965 15.2873L43.4478 16.2386C43.9701 16.7608 44.4178 17.1712 44.4364 17.1526C44.4924 17.0779 46.7307 8.6282 46.7028 8.60022C46.6748 8.57224 38.2344 10.8199 38.1691 10.8759C38.1411 10.8945 38.5515 11.3422 39.0737 11.8645L40.025 12.8158L33.8789 18.9619C29.4582 23.3826 27.7235 25.0614 27.6862 24.9494C27.5276 24.5484 27.4157 22.6738 27.4623 21.3494C27.5463 19.195 28.0126 17.1526 28.8333 15.2779C31.0996 10.1484 35.6696 6.42716 41.0976 5.31732C42.5805 5.00955 44.6043 4.87898 45.8727 5.00955C48.167 5.25204 50.0323 5.75566 51.8323 6.61369L52.7836 7.06136L54.024 5.81162C54.8167 5.00955 55.2364 4.5339 55.1805 4.47794C55.1245 4.43131 54.7421 4.19815 54.3318 3.96499C52.3919 2.89245 49.967 2.08105 47.6261 1.71732C46.5069 1.54012 43.653 1.46551 42.5432 1.57742Z" fill="white"/>
<path d="M60.7665 12.6014L59.5447 13.8418L59.9458 14.6905C60.524 15.9123 60.981 17.3019 61.2515 18.6169C62.6411 25.5092 59.7779 32.4387 53.9209 36.3465C50.7406 38.4636 46.5623 39.4895 42.7758 39.0698C41.2929 38.9019 41.1996 39.1537 43.6712 36.6822L45.8535 34.4998L46.8048 35.4511C47.3271 35.9734 47.7748 36.3838 47.7934 36.3558C47.8401 36.2998 50.0971 27.8501 50.0691 27.8221C50.0504 27.7941 41.582 30.0418 41.5261 30.0884C41.4981 30.1071 41.9085 30.5548 42.4307 31.077L43.382 32.0283L39.2318 36.1786C35.6131 39.7973 35.1002 40.3475 35.2307 40.4408C35.5105 40.646 37.3665 41.3921 38.3085 41.6905C40.5188 42.3713 42.1789 42.6138 44.6038 42.6138C48.3903 42.6138 52.009 41.6066 55.2546 39.6387C59.2649 37.2138 62.4639 33.1848 64.0028 28.6522C64.7675 26.3859 65.066 24.5019 65.0566 22.0024C65.0473 19.3724 64.6649 17.1807 63.8162 14.8864C63.2846 13.4688 62.2401 11.3703 62.0535 11.3703C62.0162 11.3703 61.438 11.9299 60.7665 12.6014Z" fill="white"/>
<path d="M101.23 8.3382C100.39 8.63665 99.8773 9.28017 99.8027 10.1289C99.7374 10.8843 99.812 11.2574 100.157 11.7703C100.549 12.3672 101.183 12.675 102.004 12.675C102.824 12.675 103.207 12.5537 103.664 12.162C104.13 11.761 104.391 11.1455 104.382 10.4366C104.382 9.73716 104.214 9.29882 103.776 8.86048C103.16 8.24494 102.097 8.03043 101.23 8.3382Z" fill="white"/>
<path d="M80.3761 14.2698C79.5088 14.4936 78.6787 14.8947 78.1564 15.3423C77.9326 15.5289 77.7368 15.6594 77.7088 15.6314C77.6808 15.6128 77.5875 15.3237 77.4943 14.9973L77.3264 14.4004L75.9647 14.3724L74.5938 14.3444V22.8408V31.3278H76.4124H78.2311V28.5672V25.8159L78.5108 26.0118C79.3409 26.5993 80.8518 27.0377 82.0549 27.0377C84.545 27.0377 86.6435 25.7693 87.6694 23.6335C88.1264 22.6822 88.3129 21.7682 88.3129 20.4998C88.3129 18.9517 87.9865 17.8232 87.2217 16.6667C86.4197 15.4636 85.058 14.5496 83.5751 14.2232C82.6518 14.018 81.2528 14.0366 80.3761 14.2698ZM82.7264 17.4314C84.9834 18.2708 85.4684 21.5724 83.5751 23.1579C82.9782 23.6615 82.4653 23.82 81.4487 23.82C80.5813 23.82 80.4694 23.8014 79.8912 23.5123C79.2103 23.1765 78.744 22.7102 78.3989 22.0107C78.2124 21.6377 78.1844 21.4418 78.1844 20.5558C78.1844 19.362 78.3336 18.9423 78.9865 18.2242C79.9005 17.2263 81.3647 16.9185 82.7264 17.4314Z" fill="white"/>
<path d="M112.365 14.1298C111.479 14.307 110.63 14.708 110.024 15.2583C109.819 15.4448 109.66 15.5381 109.66 15.4728C109.66 15.4168 109.595 15.137 109.511 14.8572L109.371 14.3536H108.019H106.676V20.509V26.6645H108.494H110.313V23.0458C110.313 19.0355 110.341 18.8023 110.901 18.0749C111.339 17.4966 111.983 17.1982 112.738 17.2075C113.717 17.2168 114.379 17.6645 114.808 18.5971C115.023 19.0541 115.023 19.1194 115.051 22.8593L115.079 26.6645H116.888H118.698L118.726 22.8127L118.754 18.9702L119.033 18.4666C119.378 17.8417 119.826 17.4686 120.46 17.2821C121.645 16.937 122.792 17.5246 123.249 18.7277C123.389 19.1008 123.417 19.623 123.445 22.9059L123.473 26.6645H125.291H127.11L127.082 22.4956C127.045 18.9049 127.017 18.2427 126.886 17.7578C126.466 16.2842 125.627 15.2116 124.424 14.6147C123.575 14.1857 122.68 14.0365 121.458 14.1018C120.013 14.1857 118.987 14.5961 117.998 15.4914L117.485 15.9671L117.168 15.594C116.338 14.6241 115.247 14.1671 113.671 14.1204C113.083 14.1018 112.495 14.1111 112.365 14.1298Z" fill="white"/>
<path d="M133.816 14.2139C132.38 14.5404 131.13 15.2399 130.281 16.1911C129.684 16.8533 129.097 18.0285 128.91 18.9331C128.677 20.043 128.77 21.8243 129.106 22.8409C130.048 25.6015 132.687 27.215 135.952 27.0098C138.134 26.8699 139.999 25.8906 141.128 24.3051C141.492 23.7829 141.93 23.0181 141.93 22.8875C141.93 22.8595 141.109 22.8409 140.102 22.8409H138.265L137.854 23.2139C137.173 23.8481 136.726 23.9974 135.541 24.0067C134.394 24.0067 133.965 23.8761 133.322 23.3165C133.005 23.0274 132.417 22.0202 132.417 21.7497C132.417 21.6471 133.275 21.6285 137.267 21.6285C141.604 21.6285 142.126 21.6098 142.182 21.4792C142.275 21.2367 142.033 19.2595 141.827 18.5787C141.492 17.4968 141.025 16.7041 140.251 15.93C138.973 14.643 137.789 14.1766 135.681 14.1114C134.795 14.0927 134.245 14.1207 133.816 14.2139ZM136.754 17.1891C136.959 17.273 137.285 17.4595 137.472 17.5901C137.854 17.8512 138.433 18.644 138.526 19.045L138.591 19.2968H135.495H132.408L132.464 19.0823C132.715 18.2616 133.546 17.4316 134.413 17.1518C135.084 16.9279 136.166 16.9466 136.754 17.1891Z" fill="white"/>
<path d="M90.2617 20.509V26.6645H92.0804H93.899V23.5588C93.899 20.192 93.955 19.7443 94.4027 18.9795C94.9436 18.0655 95.7736 17.7111 97.4151 17.7111H98.469V16.023V14.3256L97.1913 14.3816C95.4192 14.4469 94.5985 14.7173 93.8244 15.4635C93.6099 15.678 93.4141 15.8458 93.3954 15.8458C93.3767 15.8458 93.3301 15.7339 93.2928 15.5847C93.2648 15.4448 93.1716 15.109 93.097 14.8386L92.9571 14.3536H91.6047H90.2617V20.509Z" fill="white"/>
<path d="M100.242 20.509V26.6645H102.061H103.879V20.509V14.3536H102.061H100.242V20.509Z" fill="white"/>
<path d="M83.8262 29.7426C82.9589 30.153 82.334 31.0856 82.334 31.981C82.334 32.9323 83.0335 33.9115 83.9475 34.2659C84.5537 34.4991 85.4397 34.4245 86.0086 34.0887C86.4096 33.8556 86.9039 33.324 86.9039 33.1281C86.9039 33.0815 86.7547 32.9696 86.5682 32.8856L86.2324 32.7271L85.9713 33.0069C85.6635 33.3333 85.1692 33.5665 84.7589 33.5665C83.7982 33.5665 82.9868 32.5126 83.2573 31.6079C83.6397 30.3115 85.1599 29.9851 86.0272 31.011C86.2231 31.2442 86.2231 31.2442 86.5589 31.0856C86.7547 30.9924 86.9039 30.8804 86.9039 30.8338C86.9039 30.638 86.4096 30.1063 86.0086 29.8732C85.4117 29.5188 84.4231 29.4628 83.8262 29.7426Z" fill="white"/>
<path d="M91.0079 29.752C90.411 30.0224 89.9167 30.5354 89.7022 31.1136C89.4691 31.7478 89.4691 32.2141 89.7022 32.8483C90.1592 34.0701 91.5302 34.695 92.7893 34.2659C94.897 33.5478 94.897 30.4141 92.7893 29.696C92.211 29.5001 91.5115 29.5188 91.0079 29.752ZM92.6867 30.6007C94.0017 31.2628 93.6939 33.2587 92.2483 33.5292C91.1571 33.7343 90.1312 32.6431 90.439 31.6079C90.7468 30.5727 91.7447 30.125 92.6867 30.6007Z" fill="white"/>
<path d="M104.811 29.7426C103.943 30.153 103.318 31.0856 103.318 31.981C103.318 32.9323 104.018 33.9115 104.932 34.2659C105.538 34.4991 106.424 34.4245 106.993 34.0887C107.394 33.8556 107.888 33.324 107.888 33.1281C107.888 33.0815 107.739 32.9696 107.553 32.8856L107.217 32.7271L106.956 33.0069C106.648 33.3333 106.154 33.5665 105.743 33.5665C104.783 33.5665 103.971 32.5126 104.242 31.6079C104.624 30.3115 106.144 29.9851 107.012 31.011C107.207 31.2442 107.207 31.2442 107.543 31.0856C107.739 30.9924 107.888 30.8804 107.888 30.8338C107.888 30.638 107.394 30.1063 106.993 29.8732C106.396 29.5188 105.407 29.4628 104.811 29.7426Z" fill="white"/>
<path d="M130.236 29.6957C129.294 30.0315 128.688 30.9268 128.688 31.9807C128.688 34.2283 131.392 35.2636 132.903 33.5848C133.239 33.2118 133.537 32.475 133.537 32.0087C133.537 31.7942 133.537 31.7942 132.278 31.7942H131.019V32.1206V32.4377L131.821 32.4657L132.614 32.4936L132.399 32.8107C131.905 33.5475 131.122 33.7527 130.376 33.361C129.797 33.0625 129.592 32.7454 129.555 32.1019C129.508 31.4491 129.704 31.0107 130.17 30.703C130.851 30.246 131.607 30.3112 132.166 30.8708L132.53 31.2252L132.903 31.0387C133.304 30.8335 133.313 30.8429 132.8 30.2646C132.241 29.6397 131.094 29.3879 130.236 29.6957Z" fill="white"/>
<path d="M98.2463 30.0409C98.1624 30.2648 97.7893 31.3 97.407 32.3539L96.7168 34.2658L97.0899 34.2938C97.6121 34.3404 97.6774 34.2938 97.8173 33.8088L97.9386 33.3705L98.8712 33.3984L99.8132 33.4264L99.9531 33.8648L100.093 34.3124H100.541C100.783 34.3124 100.988 34.2845 100.988 34.2472C100.988 34.2098 100.625 33.156 100.177 31.9155L99.3562 29.6492H98.8712C98.3956 29.6492 98.3956 29.6492 98.2463 30.0409ZM99.4961 32.5591C99.4961 32.5964 99.207 32.6337 98.8525 32.6337H98.1997L98.5354 31.6358L98.8712 30.6285L99.1883 31.5611C99.3562 32.0648 99.4961 32.5218 99.4961 32.5591Z" fill="white"/>
<path d="M110.688 31.9808V34.3124H111.107H111.527V33.3332V32.3539H112.599H113.672V33.3332V34.3124H114.092H114.511V31.9808V29.6492H114.092H113.672V30.6285V31.6078H112.599H111.527V30.6285V29.6492H111.107H110.688V31.9808Z" fill="white"/>
<path d="M117.588 31.9808V34.3124H118.008H118.427V31.9808V29.6492H118.008H117.588V31.9808Z" fill="white"/>
<path d="M121.6 31.9808V34.3124H122.019H122.439L122.458 32.7083L122.486 31.0948L123.67 32.7083L124.864 34.3124H125.284H125.703V31.9808V29.6492H125.284H124.864L124.845 31.2347L124.817 32.8202L123.623 31.2347L122.439 29.6492H122.019H121.6V31.9808Z" fill="white"/>
</svg>
